Coordinates
version=1
nRows=14
nColumns=24
inDegrees=yes

Units are S.I. units (second, meters, Newtons, ...)
Angles are in degrees.

endheader
time	pelvis_tilt	pelvis_list	pelvis_rotation	pelvis_tx	pelvis_ty	pelvis_tz	hip_flexion_r	hip_adduction_r	hip_rotation_r	knee_angle_r	ankle_angle_r	subtalar_angle_r	mtp_angle_r	hip_flexion_l	hip_adduction_l	hip_rotation_l	knee_angle_l	ankle_angle_l	subtalar_angle_l	mtp_angle_l	lumbar_extension	lumbar_bending	lumbar_rotation
      6.55000000	     63.95894332	     -9.25890145	     -4.62796752	      0.41784519	      1.04970453	     -0.34854011	     12.29211069	      1.72621501	      9.72103768	    -34.32440796	      4.89867913	     41.98219946	      0.00000000	     -0.06686342	    -19.79584705	      1.23755535	    -61.36152908	     22.81352067	     30.88916962	      0.00000000	      0.00000000	      0.00000000	      0.00000000
      6.56000000	     64.52879218	     -9.25574206	     -4.28299439	      0.41717382	      1.04909739	     -0.34840602	     11.78309647	      1.56253727	      9.49369163	    -34.96098618	      4.96940440	     41.92390193	      0.00000000	     -0.38196929	    -19.72842344	      1.52174081	    -61.47996843	     22.81144670	     30.84789385	      0.00000000	      0.00000000	      0.00000000	      0.00000000
      6.57000000	     65.06804782	     -9.29250197	     -4.04127533	      0.41673730	      1.04864511	     -0.34791435	     11.41144275	      1.39556726	      9.21552544	    -35.86363961	      5.00138959	     41.78546148	      0.00000000	     -0.77606040	    -19.63342003	      1.71760958	    -61.58698596	     22.81470903	     30.80919290	      0.00000000	      0.00000000	      0.00000000	      0.00000000
      6.58000000	     65.36310487	     -9.29250685	     -4.00978356	      0.41672024	      1.04904350	     -0.34799075	     11.40897423	      1.30484258	      8.93439972	    -37.01650708	      4.98325847	     41.59296061	      0.00000000	     -1.08464516	    -19.53211116	      1.75871566	    -61.66656381	     22.82602147	     30.77799406	      0.00000000	      0.00000000	      0.00000000	      0.00000000
      6.59000000	     65.28765810	     -9.20341814	     -4.20485315	      0.41720833	      1.04998513	     -0.34897767	     11.87253838	      1.33152000	      8.71559133	    -38.30053627	      4.92361505	     41.39114267	      0.00000000	     -1.14552559	    -19.45199645	      1.63305074	    -61.71347390	     22.84703539	     30.76029676	      0.00000000	      0.00000000	      0.00000000	      0.00000000
      6.60000000	     64.83544992	     -9.07521479	     -4.54949621	      0.41800140	      1.05062231	     -0.34972229	     12.71664844	      1.43309308	      8.63007903	    -39.51522705	      4.85291162	     41.23229971	      0.00000000	     -0.85697606	    -19.40740529	      1.37974620	    -61.72466954	     22.87800267	     30.76245916	      0.00000000	      0.00000000	      0.00000000	      0.00000000
      6.61000000	     64.10918000	     -8.98719589	     -4.93412463	      0.41863926	      1.05056990	     -0.34924253	     13.70460507	      1.54064636	      8.71752340	    -40.44857905	      4.81496026	     41.16330356	      0.00000000	     -0.23811997	    -19.40859937	      1.07541586	    -61.69626425	     22.91739439	     30.78868353	      0.00000000	      0.00000000	      0.00000000	      0.00000000
      6.62000000	     63.28679580	     -8.95399196	     -5.26401165	      0.41894156	      1.04983305	     -0.34825151	     14.55110618	      1.62667358	      8.95581914	    -40.96732965	      4.85169699	     41.21247761	      0.00000000	      0.53588684	    -19.46964191	      0.80757578	    -61.62688632	     22.96122027	     30.83879067	      0.00000000	      0.00000000	      0.00000000	      0.00000000
      6.63000000	     62.59188524	     -8.95652368	     -5.46935150	      0.41911395	      1.04880964	     -0.34788857	     15.02447710	      1.69390630	      9.26505911	    -41.08599845	      4.98842776	     41.37948611	      0.00000000	      1.18728501	    -19.58352317	      0.64065053	    -61.51928470	     23.00288611	     30.90787050	      0.00000000	      0.00000000	      0.00000000	      0.00000000
      6.64000000	     62.24960666	     -9.00078048	     -5.50795688	      0.41925356	      1.04830928	     -0.34814946	     14.98800555	      1.73747156	      9.53744879	    -40.97080570	      5.22592753	     41.63435635	      0.00000000	      1.45473740	    -19.70638888	      0.59921027	    -61.38105897	     23.03424925	     30.98655695	      0.00000000	      0.00000000	      0.00000000	      0.00000000
      6.65000000	     62.41728431	     -9.09768330	     -5.36680061	      0.41921378	      1.04877867	     -0.34837050	     14.40175236	      1.74056235	      9.67536424	    -40.86395859	      5.54200313	     41.92741679	      0.00000000	      1.18769418	    -19.78713779	      0.67852425	    -61.22855801	     23.04751965	     31.06123135	      0.00000000	      0.00000000	      0.00000000	      0.00000000
      6.66000000	     63.13283408	     -9.21781693	     -5.05857512	      0.41887060	      1.04983776	     -0.34839431	     13.32853911	      1.69224263	      9.62581808	    -40.97035552	      5.90029550	     42.20547863	      0.00000000	      0.38585160	    -19.80589373	      0.86194850	    -61.08840939	     23.03722008	     31.11557199	      0.00000000	      0.00000000	      0.00000000	      0.00000000
      6.67000000	     64.30115637	     -9.30385888	     -4.61925049	      0.41816930	      1.05068490	     -0.34863387	     11.93807860	      1.59538453	      9.39987500	    -41.37633120	      6.26110902	     42.42731061	      0.00000000	     -0.80059704	    -19.77499461	      1.12331288	    -60.98848726	     23.00168007	     31.13448144	      0.00000000	      0.00000000	      0.00000000	      0.00000000
      6.68000000	     65.70049632	     -9.33019140	     -4.11103651	      0.41702394	      1.05070884	     -0.34923308	     10.48344084	      1.45564912	      9.06950671	    -42.03918972	      6.58965240	     42.57280970	      0.00000000	     -2.10581269	    -19.71114193	      1.41827082	    -60.94316564	     22.94373496	     31.10891483	      0.00000000	      0.00000000	      0.00000000	      0.00000000
